<svg width="37" height="37" viewBox="0 0 37 37" fill="none" xmlns="http://www.w3.org/2000/svg">
<g clip-path="url(#clip0_55_53)">
<mask id="mask0_55_53" style="mask-type:luminance" maskUnits="userSpaceOnUse" x="0" y="0" width="37" height="37">
<path d="M18.6197 1.56164e-05L0 18.1469L18.1468 36.7665L36.7665 18.6197L18.6197 1.56164e-05Z" fill="white"/>
</mask>
<g mask="url(#mask0_55_53)">
<path d="M12.6938 26.3891L17.0664 20.0093C17.457 19.4398 17.3033 19.2821 16.7239 19.6579L10.2337 23.865C9.84726 24.1157 9.22482 24.1074 8.84521 23.8472L2.46538 19.4745C1.89526 19.0839 1.9615 18.5797 2.61316 18.3491L26.6425 9.84533C27.0766 9.69176 27.2955 9.91636 27.1308 10.3463L18.0119 34.149C17.7646 34.7946 17.2588 34.8478 16.883 34.2678L12.6759 27.7777C12.4255 27.3915 12.4332 26.769 12.6938 26.3891Z" fill="#263054"/>
</g>
</g>
<defs>
<clipPath id="clip0_55_53">
<rect width="26" height="26" fill="white" transform="translate(0 18.1469) rotate(-44.2632)"/>
</clipPath>
</defs>
</svg>
